<?xml version="1.0" standalone="no"?>
<!DOCTYPE svg PUBLIC "-//W3C//DTD SVG 20010904//EN"
 "http://www.w3.org/TR/2001/REC-SVG-20010904/DTD/svg10.dtd">
<svg version="1.0" xmlns="http://www.w3.org/2000/svg"
 width="119.000000pt" height="119.000000pt" viewBox="0 0 119.000000 119.000000"
 preserveAspectRatio="xMidYMid meet">
<metadata>
Created by potrace 1.14, written by Peter Selinger 2001-2017
</metadata>
<g transform="translate(0.000000,119.000000) scale(0.100000,-0.100000)"
fill="#000000" stroke="none">
<path d="M532 1131 c-8 -5 -13 -11 -13 -15 3 -20 -1 -26 -15 -26 -9 0 -23 8
-30 18 -15 18 -20 15 -49 -34 -10 -16 -12 -16 -27 0 -17 17 -49 12 -47 -8 4
-32 -2 -37 -38 -34 -36 3 -38 2 -35 -25 3 -27 2 -28 -30 -25 -32 3 -33 2 -33
-32 0 -32 -2 -35 -30 -35 -23 0 -29 -4 -28 -17 2 -10 4 -26 5 -35 2 -12 -5
-19 -22 -22 -32 -4 -42 -20 -24 -38 20 -21 17 -32 -10 -43 -34 -13 -38 -25
-16 -45 26 -23 25 -29 -5 -43 -30 -14 -33 -38 -5 -47 26 -8 26 -35 0 -42 -29
-8 -25 -40 5 -47 30 -8 32 -20 6 -43 -22 -19 -17 -43 9 -43 24 0 36 -18 21
-33 -21 -21 -13 -45 17 -49 19 -2 26 -8 25 -20 -2 -10 -4 -26 -5 -35 -2 -14 4
-18 27 -18 28 0 30 -3 30 -35 0 -34 1 -35 34 -32 31 3 33 2 29 -22 -7 -34 13
-50 38 -32 23 17 44 4 37 -23 -7 -26 25 -36 49 -14 18 16 19 15 30 -15 14 -36
22 -39 44 -17 20 19 44 19 44 0 0 -8 8 -19 19 -24 15 -8 20 -6 29 14 13 27 38
25 47 -4 8 -25 33 -22 40 6 6 26 27 30 45 8 18 -21 40 -19 40 5 0 25 25 36 45
20 18 -15 47 -6 40 12 -3 7 -1 19 4 27 8 12 15 13 35 3 30 -13 42 -1 37 36 -2
21 1 23 31 20 29 -3 33 0 34 22 2 46 4 49 32 47 21 -2 26 2 25 16 -2 9 -4 25
-5 35 -2 12 5 18 25 20 18 2 27 9 27 22 0 10 -5 20 -12 22 -18 6 -1 38 21 38
27 0 34 28 11 42 -27 17 -25 36 5 44 27 7 36 44 11 44 -16 0 -29 27 -20 41 3
5 12 9 20 9 24 0 16 30 -11 40 -30 11 -31 21 -6 44 25 22 17 46 -15 46 -27 0
-32 21 -10 43 18 18 8 34 -24 38 -17 3 -24 10 -22 22 1 9 3 25 5 35 1 11 -5
17 -18 18 -39 2 -42 4 -41 37 1 30 -1 32 -31 29 -31 -3 -33 -1 -33 27 0 24 -4
31 -19 31 -11 0 -23 -5 -27 -12 -9 -15 -35 19 -28 37 8 19 -25 27 -43 10 -18
-18 -31 -12 -43 21 -11 27 -28 31 -36 9 -9 -24 -43 -18 -49 8 -6 21 -35 35
-35 17 0 -3 -6 -14 -13 -24 -13 -18 -15 -17 -38 7 -16 17 -29 24 -37 18z"/>
</g>
</svg>
